<mxfile host="app.diagrams.net" modified="2024-02-08T01:53:42.812Z" agent="Mozilla/5.0 (Windows NT 10.0; Win64; x64) AppleWebKit/537.36 (KHTML, like Gecko) Chrome/121.0.0.0 Safari/537.36" etag="6weJ60Z7L9godYZGm_7O" version="23.1.1" type="device">
  <diagram name="Page-1" id="2YBvvXClWsGukQMizWep">
    <mxGraphModel dx="1486" dy="796" grid="0" gridSize="10" guides="1" tooltips="1" connect="1" arrows="1" fold="1" page="0" pageScale="1" pageWidth="850" pageHeight="1100" math="0" shadow="0">
      <root>
        <mxCell id="0" />
        <mxCell id="1" parent="0" />
        <mxCell id="wX4-goPVKk1dY2rRN3xK-91" value="callback" style="html=1;verticalAlign=bottom;endArrow=open;dashed=1;endSize=8;edgeStyle=elbowEdgeStyle;elbow=vertical;curved=0;rounded=0;" edge="1" parent="1">
          <mxGeometry x="0.7686" relative="1" as="geometry">
            <mxPoint x="547" y="1138" as="targetPoint" />
            <Array as="points">
              <mxPoint x="429" y="1138" />
            </Array>
            <mxPoint x="974" y="1137.9999999999998" as="sourcePoint" />
            <mxPoint as="offset" />
          </mxGeometry>
        </mxCell>
        <mxCell id="aM9ryv3xv72pqoxQDRHE-1" value="Login Page" style="shape=umlLifeline;perimeter=lifelinePerimeter;whiteSpace=wrap;html=1;container=0;dropTarget=0;collapsible=0;recursiveResize=0;outlineConnect=0;portConstraint=eastwest;newEdgeStyle={&quot;edgeStyle&quot;:&quot;elbowEdgeStyle&quot;,&quot;elbow&quot;:&quot;vertical&quot;,&quot;curved&quot;:0,&quot;rounded&quot;:0};" parent="1" vertex="1">
          <mxGeometry x="110" y="90" width="100" height="300" as="geometry" />
        </mxCell>
        <mxCell id="aM9ryv3xv72pqoxQDRHE-2" value="" style="html=1;points=[];perimeter=orthogonalPerimeter;outlineConnect=0;targetShapes=umlLifeline;portConstraint=eastwest;newEdgeStyle={&quot;edgeStyle&quot;:&quot;elbowEdgeStyle&quot;,&quot;elbow&quot;:&quot;vertical&quot;,&quot;curved&quot;:0,&quot;rounded&quot;:0};" parent="aM9ryv3xv72pqoxQDRHE-1" vertex="1">
          <mxGeometry x="45" y="70" width="10" height="190" as="geometry" />
        </mxCell>
        <mxCell id="aM9ryv3xv72pqoxQDRHE-3" value="access" style="html=1;verticalAlign=bottom;startArrow=oval;endArrow=block;startSize=8;edgeStyle=elbowEdgeStyle;elbow=vertical;curved=0;rounded=0;" parent="aM9ryv3xv72pqoxQDRHE-1" target="aM9ryv3xv72pqoxQDRHE-2" edge="1">
          <mxGeometry relative="1" as="geometry">
            <mxPoint x="-15" y="70" as="sourcePoint" />
          </mxGeometry>
        </mxCell>
        <mxCell id="aM9ryv3xv72pqoxQDRHE-5" value="DB" style="shape=umlLifeline;perimeter=lifelinePerimeter;whiteSpace=wrap;html=1;container=0;dropTarget=0;collapsible=0;recursiveResize=0;outlineConnect=0;portConstraint=eastwest;newEdgeStyle={&quot;edgeStyle&quot;:&quot;elbowEdgeStyle&quot;,&quot;elbow&quot;:&quot;vertical&quot;,&quot;curved&quot;:0,&quot;rounded&quot;:0};" parent="1" vertex="1">
          <mxGeometry x="300" y="90" width="100" height="300" as="geometry" />
        </mxCell>
        <mxCell id="aM9ryv3xv72pqoxQDRHE-6" value="" style="html=1;points=[];perimeter=orthogonalPerimeter;outlineConnect=0;targetShapes=umlLifeline;portConstraint=eastwest;newEdgeStyle={&quot;edgeStyle&quot;:&quot;elbowEdgeStyle&quot;,&quot;elbow&quot;:&quot;vertical&quot;,&quot;curved&quot;:0,&quot;rounded&quot;:0};" parent="aM9ryv3xv72pqoxQDRHE-5" vertex="1">
          <mxGeometry x="45" y="80" width="10" height="180" as="geometry" />
        </mxCell>
        <mxCell id="wX4-goPVKk1dY2rRN3xK-2" value="" style="html=1;points=[[0,0,0,0,5],[0,1,0,0,-5],[1,0,0,0,5],[1,1,0,0,-5]];perimeter=orthogonalPerimeter;outlineConnect=0;targetShapes=umlLifeline;portConstraint=eastwest;newEdgeStyle={&quot;curved&quot;:0,&quot;rounded&quot;:0};" vertex="1" parent="aM9ryv3xv72pqoxQDRHE-5">
          <mxGeometry x="45" y="130" width="10" height="40" as="geometry" />
        </mxCell>
        <mxCell id="wX4-goPVKk1dY2rRN3xK-3" value="authentication" style="html=1;align=left;spacingLeft=2;endArrow=block;rounded=0;edgeStyle=orthogonalEdgeStyle;curved=0;rounded=0;" edge="1" target="wX4-goPVKk1dY2rRN3xK-2" parent="aM9ryv3xv72pqoxQDRHE-5">
          <mxGeometry relative="1" as="geometry">
            <mxPoint x="50" y="110" as="sourcePoint" />
            <Array as="points">
              <mxPoint x="80" y="140" />
            </Array>
          </mxGeometry>
        </mxCell>
        <mxCell id="aM9ryv3xv72pqoxQDRHE-7" value="send user info" style="html=1;verticalAlign=bottom;endArrow=block;edgeStyle=elbowEdgeStyle;elbow=vertical;curved=0;rounded=0;" parent="1" source="aM9ryv3xv72pqoxQDRHE-2" target="aM9ryv3xv72pqoxQDRHE-6" edge="1">
          <mxGeometry relative="1" as="geometry">
            <mxPoint x="275" y="180" as="sourcePoint" />
            <Array as="points">
              <mxPoint x="280" y="180" />
              <mxPoint x="260" y="170" />
            </Array>
          </mxGeometry>
        </mxCell>
        <mxCell id="aM9ryv3xv72pqoxQDRHE-8" value="return" style="html=1;verticalAlign=bottom;endArrow=open;dashed=1;endSize=8;edgeStyle=elbowEdgeStyle;elbow=vertical;curved=0;rounded=0;" parent="1" source="aM9ryv3xv72pqoxQDRHE-6" target="aM9ryv3xv72pqoxQDRHE-2" edge="1">
          <mxGeometry relative="1" as="geometry">
            <mxPoint x="275" y="255" as="targetPoint" />
            <Array as="points">
              <mxPoint x="300" y="270" />
              <mxPoint x="270" y="330" />
            </Array>
          </mxGeometry>
        </mxCell>
        <mxCell id="wX4-goPVKk1dY2rRN3xK-1" value="Actor" style="shape=umlActor;verticalLabelPosition=bottom;verticalAlign=top;html=1;outlineConnect=0;" vertex="1" parent="1">
          <mxGeometry x="60" y="90" width="30" height="60" as="geometry" />
        </mxCell>
        <mxCell id="wX4-goPVKk1dY2rRN3xK-25" value="Mainpage" style="shape=umlLifeline;perimeter=lifelinePerimeter;whiteSpace=wrap;html=1;container=0;dropTarget=0;collapsible=0;recursiveResize=0;outlineConnect=0;portConstraint=eastwest;newEdgeStyle={&quot;edgeStyle&quot;:&quot;elbowEdgeStyle&quot;,&quot;elbow&quot;:&quot;vertical&quot;,&quot;curved&quot;:0,&quot;rounded&quot;:0};" vertex="1" parent="1">
          <mxGeometry x="100" y="440" width="100" height="832" as="geometry" />
        </mxCell>
        <mxCell id="wX4-goPVKk1dY2rRN3xK-26" value="" style="html=1;points=[];perimeter=orthogonalPerimeter;outlineConnect=0;targetShapes=umlLifeline;portConstraint=eastwest;newEdgeStyle={&quot;edgeStyle&quot;:&quot;elbowEdgeStyle&quot;,&quot;elbow&quot;:&quot;vertical&quot;,&quot;curved&quot;:0,&quot;rounded&quot;:0};" vertex="1" parent="wX4-goPVKk1dY2rRN3xK-25">
          <mxGeometry x="45" y="70" width="10" height="748" as="geometry" />
        </mxCell>
        <mxCell id="wX4-goPVKk1dY2rRN3xK-27" value="retreive" style="html=1;verticalAlign=bottom;startArrow=oval;endArrow=block;startSize=8;edgeStyle=elbowEdgeStyle;elbow=vertical;curved=0;rounded=0;" edge="1" parent="wX4-goPVKk1dY2rRN3xK-25">
          <mxGeometry relative="1" as="geometry">
            <mxPoint x="-20" y="80.28999999999999" as="sourcePoint" />
            <mxPoint x="45" y="80.28999999999999" as="targetPoint" />
          </mxGeometry>
        </mxCell>
        <mxCell id="wX4-goPVKk1dY2rRN3xK-33" value="callback" style="html=1;verticalAlign=bottom;endArrow=open;dashed=1;endSize=8;edgeStyle=elbowEdgeStyle;elbow=vertical;curved=0;rounded=0;" edge="1" parent="1" source="wX4-goPVKk1dY2rRN3xK-29">
          <mxGeometry x="0.6697" relative="1" as="geometry">
            <mxPoint x="340" y="560" as="targetPoint" />
            <Array as="points">
              <mxPoint x="410" y="560" />
            </Array>
            <mxPoint x="560" y="560" as="sourcePoint" />
            <mxPoint as="offset" />
          </mxGeometry>
        </mxCell>
        <mxCell id="wX4-goPVKk1dY2rRN3xK-32" value="call info" style="html=1;verticalAlign=bottom;endArrow=block;edgeStyle=elbowEdgeStyle;elbow=vertical;curved=0;rounded=0;" edge="1" parent="1" target="wX4-goPVKk1dY2rRN3xK-29">
          <mxGeometry x="-0.7671" relative="1" as="geometry">
            <mxPoint x="160" y="540" as="sourcePoint" />
            <Array as="points">
              <mxPoint x="255" y="540" />
              <mxPoint x="255" y="530" />
            </Array>
            <mxPoint x="890" y="540" as="targetPoint" />
            <mxPoint as="offset" />
          </mxGeometry>
        </mxCell>
        <mxCell id="wX4-goPVKk1dY2rRN3xK-34" value="Actor" style="shape=umlActor;verticalLabelPosition=bottom;verticalAlign=top;html=1;outlineConnect=0;" vertex="1" parent="1">
          <mxGeometry x="40" y="440" width="30" height="60" as="geometry" />
        </mxCell>
        <mxCell id="wX4-goPVKk1dY2rRN3xK-40" value="Insert" style="html=1;verticalAlign=bottom;startArrow=oval;endArrow=block;startSize=8;edgeStyle=elbowEdgeStyle;elbow=vertical;curved=0;rounded=0;" edge="1" parent="1">
          <mxGeometry x="-0.0687" relative="1" as="geometry">
            <mxPoint x="260" y="590" as="sourcePoint" />
            <mxPoint x="325" y="590.5" as="targetPoint" />
            <Array as="points">
              <mxPoint x="320" y="590.5" />
            </Array>
            <mxPoint as="offset" />
          </mxGeometry>
        </mxCell>
        <mxCell id="wX4-goPVKk1dY2rRN3xK-41" value="data insert" style="html=1;verticalAlign=bottom;endArrow=block;curved=0;rounded=0;" edge="1" parent="1" target="wX4-goPVKk1dY2rRN3xK-28">
          <mxGeometry x="-0.6396" width="80" relative="1" as="geometry">
            <mxPoint x="330" y="650" as="sourcePoint" />
            <mxPoint x="961" y="650" as="targetPoint" />
            <Array as="points">
              <mxPoint x="510" y="650" />
            </Array>
            <mxPoint as="offset" />
          </mxGeometry>
        </mxCell>
        <mxCell id="wX4-goPVKk1dY2rRN3xK-42" value="callback" style="html=1;verticalAlign=bottom;endArrow=open;dashed=1;endSize=8;edgeStyle=elbowEdgeStyle;elbow=vertical;curved=0;rounded=0;exitX=0.45;exitY=0.334;exitDx=0;exitDy=0;exitPerimeter=0;" edge="1" parent="1" source="wX4-goPVKk1dY2rRN3xK-28">
          <mxGeometry x="0.7686" relative="1" as="geometry">
            <mxPoint x="155" y="675" as="targetPoint" />
            <Array as="points">
              <mxPoint x="440" y="675" />
            </Array>
            <mxPoint x="885" y="675" as="sourcePoint" />
            <mxPoint as="offset" />
          </mxGeometry>
        </mxCell>
        <mxCell id="wX4-goPVKk1dY2rRN3xK-43" value="update" style="html=1;verticalAlign=bottom;startArrow=oval;endArrow=block;startSize=8;edgeStyle=elbowEdgeStyle;elbow=vertical;curved=0;rounded=0;" edge="1" parent="1">
          <mxGeometry relative="1" as="geometry">
            <mxPoint x="260" y="701" as="sourcePoint" />
            <mxPoint x="325" y="701.5" as="targetPoint" />
            <Array as="points">
              <mxPoint x="320" y="701.5" />
            </Array>
          </mxGeometry>
        </mxCell>
        <mxCell id="wX4-goPVKk1dY2rRN3xK-44" value="delete" style="html=1;verticalAlign=bottom;startArrow=oval;endArrow=block;startSize=8;edgeStyle=elbowEdgeStyle;elbow=vertical;curved=0;rounded=0;" edge="1" parent="1">
          <mxGeometry x="-0.0687" relative="1" as="geometry">
            <mxPoint x="260" y="800" as="sourcePoint" />
            <mxPoint x="325" y="800.5" as="targetPoint" />
            <Array as="points">
              <mxPoint x="320" y="800.5" />
            </Array>
            <mxPoint as="offset" />
          </mxGeometry>
        </mxCell>
        <mxCell id="wX4-goPVKk1dY2rRN3xK-45" value="data update" style="html=1;verticalAlign=bottom;endArrow=block;curved=0;rounded=0;" edge="1" parent="1" target="wX4-goPVKk1dY2rRN3xK-29">
          <mxGeometry x="-0.6573" width="80" relative="1" as="geometry">
            <mxPoint x="335" y="760" as="sourcePoint" />
            <mxPoint x="885" y="760" as="targetPoint" />
            <Array as="points">
              <mxPoint x="360" y="760" />
            </Array>
            <mxPoint as="offset" />
          </mxGeometry>
        </mxCell>
        <mxCell id="wX4-goPVKk1dY2rRN3xK-46" value="callback" style="html=1;verticalAlign=bottom;endArrow=open;dashed=1;endSize=8;edgeStyle=elbowEdgeStyle;elbow=vertical;curved=0;rounded=0;exitX=0.463;exitY=0.479;exitDx=0;exitDy=0;exitPerimeter=0;" edge="1" parent="1" source="wX4-goPVKk1dY2rRN3xK-28">
          <mxGeometry x="0.7686" relative="1" as="geometry">
            <mxPoint x="155" y="780" as="targetPoint" />
            <Array as="points">
              <mxPoint x="435" y="780" />
            </Array>
            <mxPoint x="889.5" y="780" as="sourcePoint" />
            <mxPoint as="offset" />
          </mxGeometry>
        </mxCell>
        <mxCell id="wX4-goPVKk1dY2rRN3xK-49" value="data delete" style="html=1;verticalAlign=bottom;endArrow=block;curved=0;rounded=0;" edge="1" parent="1" source="wX4-goPVKk1dY2rRN3xK-191" target="wX4-goPVKk1dY2rRN3xK-29">
          <mxGeometry x="-0.6573" width="80" relative="1" as="geometry">
            <mxPoint x="355" y="820" as="sourcePoint" />
            <mxPoint x="867" y="809" as="targetPoint" />
            <Array as="points">
              <mxPoint x="368" y="811" />
            </Array>
            <mxPoint as="offset" />
          </mxGeometry>
        </mxCell>
        <mxCell id="wX4-goPVKk1dY2rRN3xK-50" value="callback" style="html=1;verticalAlign=bottom;endArrow=open;dashed=1;endSize=8;edgeStyle=elbowEdgeStyle;elbow=vertical;curved=0;rounded=0;" edge="1" parent="1" source="wX4-goPVKk1dY2rRN3xK-28" target="wX4-goPVKk1dY2rRN3xK-26">
          <mxGeometry x="0.7686" relative="1" as="geometry">
            <mxPoint x="160" y="830" as="targetPoint" />
            <Array as="points">
              <mxPoint x="435" y="830" />
            </Array>
            <mxPoint x="490" y="830" as="sourcePoint" />
            <mxPoint as="offset" />
          </mxGeometry>
        </mxCell>
        <mxCell id="wX4-goPVKk1dY2rRN3xK-61" value="Certification" style="shape=umlLifeline;perimeter=lifelinePerimeter;whiteSpace=wrap;html=1;container=0;dropTarget=0;collapsible=0;recursiveResize=0;outlineConnect=0;portConstraint=eastwest;newEdgeStyle={&quot;edgeStyle&quot;:&quot;elbowEdgeStyle&quot;,&quot;elbow&quot;:&quot;vertical&quot;,&quot;curved&quot;:0,&quot;rounded&quot;:0};" vertex="1" parent="1">
          <mxGeometry x="650" y="90" width="100" height="300" as="geometry" />
        </mxCell>
        <mxCell id="wX4-goPVKk1dY2rRN3xK-62" value="" style="html=1;points=[];perimeter=orthogonalPerimeter;outlineConnect=0;targetShapes=umlLifeline;portConstraint=eastwest;newEdgeStyle={&quot;edgeStyle&quot;:&quot;elbowEdgeStyle&quot;,&quot;elbow&quot;:&quot;vertical&quot;,&quot;curved&quot;:0,&quot;rounded&quot;:0};" vertex="1" parent="wX4-goPVKk1dY2rRN3xK-61">
          <mxGeometry x="45" y="70" width="10" height="215" as="geometry" />
        </mxCell>
        <mxCell id="wX4-goPVKk1dY2rRN3xK-63" value="certification" style="html=1;verticalAlign=bottom;startArrow=oval;endArrow=block;startSize=8;edgeStyle=elbowEdgeStyle;elbow=vertical;curved=0;rounded=0;" edge="1" parent="wX4-goPVKk1dY2rRN3xK-61" target="wX4-goPVKk1dY2rRN3xK-62">
          <mxGeometry x="0.1707" relative="1" as="geometry">
            <mxPoint x="-15" y="70" as="sourcePoint" />
            <mxPoint as="offset" />
          </mxGeometry>
        </mxCell>
        <mxCell id="wX4-goPVKk1dY2rRN3xK-64" value="DB" style="shape=umlLifeline;perimeter=lifelinePerimeter;whiteSpace=wrap;html=1;container=0;dropTarget=0;collapsible=0;recursiveResize=0;outlineConnect=0;portConstraint=eastwest;newEdgeStyle={&quot;edgeStyle&quot;:&quot;elbowEdgeStyle&quot;,&quot;elbow&quot;:&quot;vertical&quot;,&quot;curved&quot;:0,&quot;rounded&quot;:0};" vertex="1" parent="1">
          <mxGeometry x="1030" y="90" width="100" height="300" as="geometry" />
        </mxCell>
        <mxCell id="wX4-goPVKk1dY2rRN3xK-65" value="" style="html=1;points=[];perimeter=orthogonalPerimeter;outlineConnect=0;targetShapes=umlLifeline;portConstraint=eastwest;newEdgeStyle={&quot;edgeStyle&quot;:&quot;elbowEdgeStyle&quot;,&quot;elbow&quot;:&quot;vertical&quot;,&quot;curved&quot;:0,&quot;rounded&quot;:0};" vertex="1" parent="wX4-goPVKk1dY2rRN3xK-64">
          <mxGeometry x="45" y="80" width="10" height="204" as="geometry" />
        </mxCell>
        <mxCell id="wX4-goPVKk1dY2rRN3xK-68" value="data info" style="html=1;verticalAlign=bottom;endArrow=block;edgeStyle=elbowEdgeStyle;elbow=vertical;curved=0;rounded=0;" edge="1" parent="1" source="wX4-goPVKk1dY2rRN3xK-62" target="wX4-goPVKk1dY2rRN3xK-65">
          <mxGeometry x="-0.4571" relative="1" as="geometry">
            <mxPoint x="795" y="180" as="sourcePoint" />
            <Array as="points">
              <mxPoint x="800" y="180" />
              <mxPoint x="780" y="170" />
            </Array>
            <mxPoint as="offset" />
          </mxGeometry>
        </mxCell>
        <mxCell id="wX4-goPVKk1dY2rRN3xK-70" value="Actor" style="shape=umlActor;verticalLabelPosition=bottom;verticalAlign=top;html=1;outlineConnect=0;" vertex="1" parent="1">
          <mxGeometry x="580" y="90" width="30" height="60" as="geometry" />
        </mxCell>
        <mxCell id="wX4-goPVKk1dY2rRN3xK-71" value="comment" style="html=1;verticalAlign=bottom;startArrow=oval;endArrow=block;startSize=8;edgeStyle=elbowEdgeStyle;elbow=vertical;curved=0;rounded=0;" edge="1" parent="1">
          <mxGeometry x="-0.0687" relative="1" as="geometry">
            <mxPoint x="260" y="860" as="sourcePoint" />
            <mxPoint x="325" y="860.5" as="targetPoint" />
            <Array as="points">
              <mxPoint x="320" y="860.5" />
            </Array>
            <mxPoint as="offset" />
          </mxGeometry>
        </mxCell>
        <mxCell id="wX4-goPVKk1dY2rRN3xK-72" value="callback" style="html=1;verticalAlign=bottom;endArrow=open;dashed=1;endSize=8;edgeStyle=elbowEdgeStyle;elbow=vertical;curved=0;rounded=0;" edge="1" parent="1" source="wX4-goPVKk1dY2rRN3xK-28" target="wX4-goPVKk1dY2rRN3xK-26">
          <mxGeometry x="0.7686" relative="1" as="geometry">
            <mxPoint x="340" y="925" as="targetPoint" />
            <Array as="points">
              <mxPoint x="354" y="922" />
              <mxPoint x="435" y="925" />
            </Array>
            <mxPoint x="520" y="925" as="sourcePoint" />
            <mxPoint as="offset" />
          </mxGeometry>
        </mxCell>
        <mxCell id="wX4-goPVKk1dY2rRN3xK-73" value="call info" style="html=1;verticalAlign=bottom;endArrow=block;edgeStyle=elbowEdgeStyle;elbow=vertical;curved=0;rounded=0;" edge="1" parent="1" source="wX4-goPVKk1dY2rRN3xK-193" target="wX4-goPVKk1dY2rRN3xK-29">
          <mxGeometry x="-0.6727" y="2" relative="1" as="geometry">
            <mxPoint x="348" y="876" as="sourcePoint" />
            <Array as="points">
              <mxPoint x="977" y="876" />
            </Array>
            <mxPoint x="950" y="881" as="targetPoint" />
            <mxPoint as="offset" />
          </mxGeometry>
        </mxCell>
        <mxCell id="wX4-goPVKk1dY2rRN3xK-76" value="callback" style="html=1;verticalAlign=bottom;endArrow=open;dashed=1;endSize=8;edgeStyle=elbowEdgeStyle;elbow=vertical;curved=0;rounded=0;" edge="1" parent="1">
          <mxGeometry x="0.027" relative="1" as="geometry">
            <mxPoint x="160" y="570" as="targetPoint" />
            <Array as="points">
              <mxPoint x="215" y="570" />
            </Array>
            <mxPoint x="330" y="570" as="sourcePoint" />
            <mxPoint as="offset" />
          </mxGeometry>
        </mxCell>
        <mxCell id="wX4-goPVKk1dY2rRN3xK-77" value="share" style="html=1;verticalAlign=bottom;startArrow=oval;endArrow=block;startSize=8;edgeStyle=elbowEdgeStyle;elbow=vertical;curved=0;rounded=0;" edge="1" parent="1">
          <mxGeometry x="-0.0687" relative="1" as="geometry">
            <mxPoint x="255.5" y="959" as="sourcePoint" />
            <mxPoint x="324.9999999999998" y="959.5" as="targetPoint" />
            <Array as="points">
              <mxPoint x="315.5" y="959.5" />
            </Array>
            <mxPoint as="offset" />
          </mxGeometry>
        </mxCell>
        <mxCell id="wX4-goPVKk1dY2rRN3xK-78" value="call info" style="html=1;verticalAlign=bottom;endArrow=block;edgeStyle=elbowEdgeStyle;elbow=vertical;curved=0;rounded=0;" edge="1" parent="1" target="wX4-goPVKk1dY2rRN3xK-80">
          <mxGeometry x="0.13" relative="1" as="geometry">
            <mxPoint x="337" y="979" as="sourcePoint" />
            <Array as="points">
              <mxPoint x="507.93" y="979" />
              <mxPoint x="462.93" y="969" />
            </Array>
            <mxPoint x="525" y="979" as="targetPoint" />
            <mxPoint as="offset" />
          </mxGeometry>
        </mxCell>
        <mxCell id="wX4-goPVKk1dY2rRN3xK-83" value="insert info" style="html=1;verticalAlign=bottom;endArrow=block;edgeStyle=elbowEdgeStyle;elbow=vertical;curved=0;rounded=0;" edge="1" parent="1">
          <mxGeometry x="-0.0254" relative="1" as="geometry">
            <mxPoint x="861.0714285714284" y="1213" as="sourcePoint" />
            <Array as="points">
              <mxPoint x="946" y="1213" />
            </Array>
            <mxPoint x="974" y="1213" as="targetPoint" />
            <mxPoint as="offset" />
          </mxGeometry>
        </mxCell>
        <mxCell id="wX4-goPVKk1dY2rRN3xK-74" value="Board" style="shape=umlLifeline;perimeter=lifelinePerimeter;whiteSpace=wrap;html=1;container=0;dropTarget=0;collapsible=0;recursiveResize=0;outlineConnect=0;portConstraint=eastwest;newEdgeStyle={&quot;edgeStyle&quot;:&quot;elbowEdgeStyle&quot;,&quot;elbow&quot;:&quot;vertical&quot;,&quot;curved&quot;:0,&quot;rounded&quot;:0};" vertex="1" parent="1">
          <mxGeometry x="280" y="440" width="100" height="832" as="geometry" />
        </mxCell>
        <mxCell id="wX4-goPVKk1dY2rRN3xK-75" value="" style="html=1;points=[];perimeter=orthogonalPerimeter;outlineConnect=0;targetShapes=umlLifeline;portConstraint=eastwest;newEdgeStyle={&quot;edgeStyle&quot;:&quot;elbowEdgeStyle&quot;,&quot;elbow&quot;:&quot;vertical&quot;,&quot;curved&quot;:0,&quot;rounded&quot;:0};" vertex="1" parent="wX4-goPVKk1dY2rRN3xK-74">
          <mxGeometry x="45" y="112" width="10" height="115" as="geometry" />
        </mxCell>
        <mxCell id="wX4-goPVKk1dY2rRN3xK-96" value="" style="html=1;points=[[0,0,0,0,5],[0,1,0,0,-5],[1,0,0,0,5],[1,1,0,0,-5]];perimeter=orthogonalPerimeter;outlineConnect=0;targetShapes=umlLifeline;portConstraint=eastwest;newEdgeStyle={&quot;curved&quot;:0,&quot;rounded&quot;:0};" vertex="1" parent="wX4-goPVKk1dY2rRN3xK-74">
          <mxGeometry x="45" y="180" width="10" height="20" as="geometry" />
        </mxCell>
        <mxCell id="wX4-goPVKk1dY2rRN3xK-97" value="scope of disclosure" style="html=1;align=left;spacingLeft=2;endArrow=block;rounded=0;edgeStyle=orthogonalEdgeStyle;curved=0;rounded=0;" edge="1" target="wX4-goPVKk1dY2rRN3xK-96" parent="wX4-goPVKk1dY2rRN3xK-74">
          <mxGeometry relative="1" as="geometry">
            <mxPoint x="50" y="160" as="sourcePoint" />
            <Array as="points">
              <mxPoint x="80" y="190" />
            </Array>
          </mxGeometry>
        </mxCell>
        <mxCell id="wX4-goPVKk1dY2rRN3xK-190" value="" style="html=1;points=[];perimeter=orthogonalPerimeter;outlineConnect=0;targetShapes=umlLifeline;portConstraint=eastwest;newEdgeStyle={&quot;edgeStyle&quot;:&quot;elbowEdgeStyle&quot;,&quot;elbow&quot;:&quot;vertical&quot;,&quot;curved&quot;:0,&quot;rounded&quot;:0};" vertex="1" parent="wX4-goPVKk1dY2rRN3xK-74">
          <mxGeometry x="45" y="243" width="10" height="91" as="geometry" />
        </mxCell>
        <mxCell id="wX4-goPVKk1dY2rRN3xK-102" value="" style="html=1;points=[[0,0,0,0,5],[0,1,0,0,-5],[1,0,0,0,5],[1,1,0,0,-5]];perimeter=orthogonalPerimeter;outlineConnect=0;targetShapes=umlLifeline;portConstraint=eastwest;newEdgeStyle={&quot;curved&quot;:0,&quot;rounded&quot;:0};" vertex="1" parent="wX4-goPVKk1dY2rRN3xK-74">
          <mxGeometry x="45" y="290" width="10" height="20" as="geometry" />
        </mxCell>
        <mxCell id="wX4-goPVKk1dY2rRN3xK-103" value="scope of disclosure" style="html=1;align=left;spacingLeft=2;endArrow=block;rounded=0;edgeStyle=orthogonalEdgeStyle;curved=0;rounded=0;" edge="1" parent="wX4-goPVKk1dY2rRN3xK-74" target="wX4-goPVKk1dY2rRN3xK-102">
          <mxGeometry relative="1" as="geometry">
            <mxPoint x="50" y="270" as="sourcePoint" />
            <Array as="points">
              <mxPoint x="80" y="300" />
            </Array>
          </mxGeometry>
        </mxCell>
        <mxCell id="wX4-goPVKk1dY2rRN3xK-193" value="" style="html=1;points=[];perimeter=orthogonalPerimeter;outlineConnect=0;targetShapes=umlLifeline;portConstraint=eastwest;newEdgeStyle={&quot;edgeStyle&quot;:&quot;elbowEdgeStyle&quot;,&quot;elbow&quot;:&quot;vertical&quot;,&quot;curved&quot;:0,&quot;rounded&quot;:0};" vertex="1" parent="wX4-goPVKk1dY2rRN3xK-74">
          <mxGeometry x="45" y="409" width="10" height="64" as="geometry" />
        </mxCell>
        <mxCell id="wX4-goPVKk1dY2rRN3xK-194" value="" style="html=1;points=[];perimeter=orthogonalPerimeter;outlineConnect=0;targetShapes=umlLifeline;portConstraint=eastwest;newEdgeStyle={&quot;edgeStyle&quot;:&quot;elbowEdgeStyle&quot;,&quot;elbow&quot;:&quot;vertical&quot;,&quot;curved&quot;:0,&quot;rounded&quot;:0};" vertex="1" parent="wX4-goPVKk1dY2rRN3xK-74">
          <mxGeometry x="45" y="510" width="10" height="285" as="geometry" />
        </mxCell>
        <mxCell id="wX4-goPVKk1dY2rRN3xK-28" value="DB" style="shape=umlLifeline;perimeter=lifelinePerimeter;whiteSpace=wrap;html=1;container=0;dropTarget=0;collapsible=0;recursiveResize=0;outlineConnect=0;portConstraint=eastwest;newEdgeStyle={&quot;edgeStyle&quot;:&quot;elbowEdgeStyle&quot;,&quot;elbow&quot;:&quot;vertical&quot;,&quot;curved&quot;:0,&quot;rounded&quot;:0};" vertex="1" parent="1">
          <mxGeometry x="930" y="440" width="100" height="850" as="geometry" />
        </mxCell>
        <mxCell id="wX4-goPVKk1dY2rRN3xK-29" value="" style="html=1;points=[];perimeter=orthogonalPerimeter;outlineConnect=0;targetShapes=umlLifeline;portConstraint=eastwest;newEdgeStyle={&quot;edgeStyle&quot;:&quot;elbowEdgeStyle&quot;,&quot;elbow&quot;:&quot;vertical&quot;,&quot;curved&quot;:0,&quot;rounded&quot;:0};" vertex="1" parent="wX4-goPVKk1dY2rRN3xK-28">
          <mxGeometry x="45" y="70" width="10" height="755" as="geometry" />
        </mxCell>
        <mxCell id="wX4-goPVKk1dY2rRN3xK-79" value="F_List" style="shape=umlLifeline;perimeter=lifelinePerimeter;whiteSpace=wrap;html=1;container=0;dropTarget=0;collapsible=0;recursiveResize=0;outlineConnect=0;portConstraint=eastwest;newEdgeStyle={&quot;edgeStyle&quot;:&quot;elbowEdgeStyle&quot;,&quot;elbow&quot;:&quot;vertical&quot;,&quot;curved&quot;:0,&quot;rounded&quot;:0};" vertex="1" parent="1">
          <mxGeometry x="490" y="440" width="100" height="830" as="geometry" />
        </mxCell>
        <mxCell id="wX4-goPVKk1dY2rRN3xK-80" value="" style="html=1;points=[];perimeter=orthogonalPerimeter;outlineConnect=0;targetShapes=umlLifeline;portConstraint=eastwest;newEdgeStyle={&quot;edgeStyle&quot;:&quot;elbowEdgeStyle&quot;,&quot;elbow&quot;:&quot;vertical&quot;,&quot;curved&quot;:0,&quot;rounded&quot;:0};" vertex="1" parent="wX4-goPVKk1dY2rRN3xK-79">
          <mxGeometry x="45" y="518" width="10" height="71" as="geometry" />
        </mxCell>
        <mxCell id="wX4-goPVKk1dY2rRN3xK-219" value="" style="html=1;points=[];perimeter=orthogonalPerimeter;outlineConnect=0;targetShapes=umlLifeline;portConstraint=eastwest;newEdgeStyle={&quot;edgeStyle&quot;:&quot;elbowEdgeStyle&quot;,&quot;elbow&quot;:&quot;vertical&quot;,&quot;curved&quot;:0,&quot;rounded&quot;:0};" vertex="1" parent="wX4-goPVKk1dY2rRN3xK-79">
          <mxGeometry x="45" y="673" width="10" height="59" as="geometry" />
        </mxCell>
        <mxCell id="wX4-goPVKk1dY2rRN3xK-88" value="info transfer" style="html=1;verticalAlign=bottom;endArrow=block;edgeStyle=elbowEdgeStyle;elbow=horizontal;curved=0;rounded=0;" edge="1" parent="1">
          <mxGeometry x="-0.4026" y="1" relative="1" as="geometry">
            <mxPoint x="338" y="1057" as="sourcePoint" />
            <Array as="points" />
            <mxPoint x="697.5" y="1057.05" as="targetPoint" />
            <mxPoint as="offset" />
          </mxGeometry>
        </mxCell>
        <mxCell id="wX4-goPVKk1dY2rRN3xK-84" value="Alarm" style="shape=umlLifeline;perimeter=lifelinePerimeter;whiteSpace=wrap;html=1;container=0;dropTarget=0;collapsible=0;recursiveResize=0;outlineConnect=0;portConstraint=eastwest;newEdgeStyle={&quot;edgeStyle&quot;:&quot;elbowEdgeStyle&quot;,&quot;elbow&quot;:&quot;vertical&quot;,&quot;curved&quot;:0,&quot;rounded&quot;:0};" vertex="1" parent="1">
          <mxGeometry x="653" y="440" width="100" height="838" as="geometry" />
        </mxCell>
        <mxCell id="wX4-goPVKk1dY2rRN3xK-205" value="" style="html=1;points=[];perimeter=orthogonalPerimeter;outlineConnect=0;targetShapes=umlLifeline;portConstraint=eastwest;newEdgeStyle={&quot;edgeStyle&quot;:&quot;elbowEdgeStyle&quot;,&quot;elbow&quot;:&quot;vertical&quot;,&quot;curved&quot;:0,&quot;rounded&quot;:0};" vertex="1" parent="wX4-goPVKk1dY2rRN3xK-84">
          <mxGeometry x="45" y="582" width="10" height="91" as="geometry" />
        </mxCell>
        <mxCell id="wX4-goPVKk1dY2rRN3xK-120" value="Mainpage" style="shape=umlLifeline;perimeter=lifelinePerimeter;whiteSpace=wrap;html=1;container=0;dropTarget=0;collapsible=0;recursiveResize=0;outlineConnect=0;portConstraint=eastwest;newEdgeStyle={&quot;edgeStyle&quot;:&quot;elbowEdgeStyle&quot;,&quot;elbow&quot;:&quot;vertical&quot;,&quot;curved&quot;:0,&quot;rounded&quot;:0};" vertex="1" parent="1">
          <mxGeometry x="1140" y="440" width="100" height="501" as="geometry" />
        </mxCell>
        <mxCell id="wX4-goPVKk1dY2rRN3xK-121" value="" style="html=1;points=[];perimeter=orthogonalPerimeter;outlineConnect=0;targetShapes=umlLifeline;portConstraint=eastwest;newEdgeStyle={&quot;edgeStyle&quot;:&quot;elbowEdgeStyle&quot;,&quot;elbow&quot;:&quot;vertical&quot;,&quot;curved&quot;:0,&quot;rounded&quot;:0};" vertex="1" parent="wX4-goPVKk1dY2rRN3xK-120">
          <mxGeometry x="45" y="70" width="10" height="416" as="geometry" />
        </mxCell>
        <mxCell id="wX4-goPVKk1dY2rRN3xK-122" value="retreive" style="html=1;verticalAlign=bottom;startArrow=oval;endArrow=block;startSize=8;edgeStyle=elbowEdgeStyle;elbow=vertical;curved=0;rounded=0;" edge="1" parent="wX4-goPVKk1dY2rRN3xK-120">
          <mxGeometry relative="1" as="geometry">
            <mxPoint x="-20" y="80.28999999999999" as="sourcePoint" />
            <mxPoint x="45" y="80.28999999999999" as="targetPoint" />
          </mxGeometry>
        </mxCell>
        <mxCell id="wX4-goPVKk1dY2rRN3xK-123" value="Actor" style="shape=umlActor;verticalLabelPosition=bottom;verticalAlign=top;html=1;outlineConnect=0;" vertex="1" parent="1">
          <mxGeometry x="1080" y="440" width="30" height="60" as="geometry" />
        </mxCell>
        <mxCell id="wX4-goPVKk1dY2rRN3xK-130" value="R_Board" style="shape=umlLifeline;perimeter=lifelinePerimeter;whiteSpace=wrap;html=1;container=0;dropTarget=0;collapsible=0;recursiveResize=0;outlineConnect=0;portConstraint=eastwest;newEdgeStyle={&quot;edgeStyle&quot;:&quot;elbowEdgeStyle&quot;,&quot;elbow&quot;:&quot;vertical&quot;,&quot;curved&quot;:0,&quot;rounded&quot;:0};" vertex="1" parent="1">
          <mxGeometry x="1320" y="440" width="100" height="501" as="geometry" />
        </mxCell>
        <mxCell id="wX4-goPVKk1dY2rRN3xK-131" value="" style="html=1;points=[];perimeter=orthogonalPerimeter;outlineConnect=0;targetShapes=umlLifeline;portConstraint=eastwest;newEdgeStyle={&quot;edgeStyle&quot;:&quot;elbowEdgeStyle&quot;,&quot;elbow&quot;:&quot;vertical&quot;,&quot;curved&quot;:0,&quot;rounded&quot;:0};" vertex="1" parent="wX4-goPVKk1dY2rRN3xK-130">
          <mxGeometry x="45" y="70" width="10" height="291" as="geometry" />
        </mxCell>
        <mxCell id="wX4-goPVKk1dY2rRN3xK-188" value="" style="html=1;points=[];perimeter=orthogonalPerimeter;outlineConnect=0;targetShapes=umlLifeline;portConstraint=eastwest;newEdgeStyle={&quot;edgeStyle&quot;:&quot;elbowEdgeStyle&quot;,&quot;elbow&quot;:&quot;vertical&quot;,&quot;curved&quot;:0,&quot;rounded&quot;:0};" vertex="1" parent="wX4-goPVKk1dY2rRN3xK-130">
          <mxGeometry x="45" y="391" width="10" height="59" as="geometry" />
        </mxCell>
        <mxCell id="wX4-goPVKk1dY2rRN3xK-148" value="DB" style="shape=umlLifeline;perimeter=lifelinePerimeter;whiteSpace=wrap;html=1;container=0;dropTarget=0;collapsible=0;recursiveResize=0;outlineConnect=0;portConstraint=eastwest;newEdgeStyle={&quot;edgeStyle&quot;:&quot;elbowEdgeStyle&quot;,&quot;elbow&quot;:&quot;vertical&quot;,&quot;curved&quot;:0,&quot;rounded&quot;:0};" vertex="1" parent="1">
          <mxGeometry x="1701" y="437" width="100" height="500" as="geometry" />
        </mxCell>
        <mxCell id="wX4-goPVKk1dY2rRN3xK-149" value="" style="html=1;points=[];perimeter=orthogonalPerimeter;outlineConnect=0;targetShapes=umlLifeline;portConstraint=eastwest;newEdgeStyle={&quot;edgeStyle&quot;:&quot;elbowEdgeStyle&quot;,&quot;elbow&quot;:&quot;vertical&quot;,&quot;curved&quot;:0,&quot;rounded&quot;:0};" vertex="1" parent="wX4-goPVKk1dY2rRN3xK-148">
          <mxGeometry x="45" y="70" width="10" height="417" as="geometry" />
        </mxCell>
        <mxCell id="wX4-goPVKk1dY2rRN3xK-152" value="call info" style="html=1;verticalAlign=bottom;endArrow=block;edgeStyle=elbowEdgeStyle;elbow=vertical;curved=0;rounded=0;" edge="1" parent="1" source="wX4-goPVKk1dY2rRN3xK-121" target="wX4-goPVKk1dY2rRN3xK-149">
          <mxGeometry x="-0.7671" relative="1" as="geometry">
            <mxPoint x="1200" y="540" as="sourcePoint" />
            <Array as="points">
              <mxPoint x="1295" y="540" />
              <mxPoint x="1295" y="530" />
            </Array>
            <mxPoint x="1880" y="540" as="targetPoint" />
            <mxPoint as="offset" />
          </mxGeometry>
        </mxCell>
        <mxCell id="wX4-goPVKk1dY2rRN3xK-153" value="callback" style="html=1;verticalAlign=bottom;endArrow=open;dashed=1;endSize=8;edgeStyle=elbowEdgeStyle;elbow=vertical;curved=0;rounded=0;" edge="1" parent="1" source="wX4-goPVKk1dY2rRN3xK-149">
          <mxGeometry x="0.6697" relative="1" as="geometry">
            <mxPoint x="1375" y="570" as="targetPoint" />
            <Array as="points">
              <mxPoint x="1560" y="570" />
            </Array>
            <mxPoint x="1740" y="570" as="sourcePoint" />
            <mxPoint as="offset" />
          </mxGeometry>
        </mxCell>
        <mxCell id="wX4-goPVKk1dY2rRN3xK-154" value="retreive area" style="html=1;verticalAlign=bottom;endArrow=block;curved=0;rounded=0;" edge="1" parent="1" target="wX4-goPVKk1dY2rRN3xK-149">
          <mxGeometry x="-0.7035" width="80" relative="1" as="geometry">
            <mxPoint x="1375" y="620" as="sourcePoint" />
            <mxPoint x="1510" y="620" as="targetPoint" />
            <mxPoint as="offset" />
          </mxGeometry>
        </mxCell>
        <mxCell id="wX4-goPVKk1dY2rRN3xK-156" value="callback" style="html=1;verticalAlign=bottom;endArrow=open;dashed=1;endSize=8;edgeStyle=elbowEdgeStyle;elbow=vertical;curved=0;rounded=0;" edge="1" parent="1" source="wX4-goPVKk1dY2rRN3xK-149" target="wX4-goPVKk1dY2rRN3xK-131">
          <mxGeometry x="0.6819" y="2" relative="1" as="geometry">
            <mxPoint x="1387" y="660" as="targetPoint" />
            <Array as="points">
              <mxPoint x="1720" y="660" />
            </Array>
            <mxPoint x="1900" y="660" as="sourcePoint" />
            <mxPoint as="offset" />
          </mxGeometry>
        </mxCell>
        <mxCell id="wX4-goPVKk1dY2rRN3xK-157" value="select area" style="html=1;verticalAlign=bottom;endArrow=block;curved=0;rounded=0;" edge="1" parent="1" target="wX4-goPVKk1dY2rRN3xK-185">
          <mxGeometry x="-0.5373" width="80" relative="1" as="geometry">
            <mxPoint x="1375" y="713" as="sourcePoint" />
            <mxPoint x="1602" y="713" as="targetPoint" />
            <mxPoint as="offset" />
          </mxGeometry>
        </mxCell>
        <mxCell id="wX4-goPVKk1dY2rRN3xK-166" value="Insert, update" style="html=1;verticalAlign=bottom;startArrow=oval;endArrow=block;startSize=8;edgeStyle=elbowEdgeStyle;elbow=vertical;curved=0;rounded=0;" edge="1" parent="1">
          <mxGeometry x="-0.0687" y="11" relative="1" as="geometry">
            <mxPoint x="1300" y="600" as="sourcePoint" />
            <mxPoint x="1365" y="600.5" as="targetPoint" />
            <Array as="points">
              <mxPoint x="1360" y="600.5" />
            </Array>
            <mxPoint y="1" as="offset" />
          </mxGeometry>
        </mxCell>
        <mxCell id="wX4-goPVKk1dY2rRN3xK-167" value="callback" style="html=1;verticalAlign=bottom;endArrow=open;dashed=1;endSize=8;edgeStyle=elbowEdgeStyle;elbow=vertical;curved=0;rounded=0;" edge="1" parent="1" source="wX4-goPVKk1dY2rRN3xK-186" target="wX4-goPVKk1dY2rRN3xK-131">
          <mxGeometry x="0.5608" y="-2" relative="1" as="geometry">
            <mxPoint x="1380" y="739.6" as="targetPoint" />
            <Array as="points">
              <mxPoint x="1440" y="740.01" />
            </Array>
            <mxPoint x="1630" y="740.0099999999999" as="sourcePoint" />
            <mxPoint as="offset" />
          </mxGeometry>
        </mxCell>
        <mxCell id="wX4-goPVKk1dY2rRN3xK-168" value="delete" style="html=1;verticalAlign=bottom;startArrow=oval;endArrow=block;startSize=8;edgeStyle=elbowEdgeStyle;elbow=vertical;curved=0;rounded=0;" edge="1" parent="1">
          <mxGeometry x="-0.0687" relative="1" as="geometry">
            <mxPoint x="1300" y="850" as="sourcePoint" />
            <mxPoint x="1365" y="850.5" as="targetPoint" />
            <Array as="points">
              <mxPoint x="1360" y="850.5" />
            </Array>
            <mxPoint as="offset" />
          </mxGeometry>
        </mxCell>
        <mxCell id="wX4-goPVKk1dY2rRN3xK-169" value="data insert" style="html=1;verticalAlign=bottom;endArrow=block;curved=0;rounded=0;" edge="1" parent="1" source="wX4-goPVKk1dY2rRN3xK-131" target="wX4-goPVKk1dY2rRN3xK-149">
          <mxGeometry x="-0.6396" width="80" relative="1" as="geometry">
            <mxPoint x="1380" y="800" as="sourcePoint" />
            <mxPoint x="1870" y="800" as="targetPoint" />
            <Array as="points">
              <mxPoint x="1547" y="790" />
            </Array>
            <mxPoint as="offset" />
          </mxGeometry>
        </mxCell>
        <mxCell id="wX4-goPVKk1dY2rRN3xK-170" value="callback" style="html=1;verticalAlign=bottom;endArrow=open;dashed=1;endSize=8;edgeStyle=elbowEdgeStyle;elbow=vertical;curved=0;rounded=0;" edge="1" parent="1" source="wX4-goPVKk1dY2rRN3xK-149" target="wX4-goPVKk1dY2rRN3xK-121">
          <mxGeometry x="0.6697" relative="1" as="geometry">
            <mxPoint x="1370" y="820" as="targetPoint" />
            <Array as="points">
              <mxPoint x="1555" y="820" />
            </Array>
            <mxPoint x="1880" y="820" as="sourcePoint" />
            <mxPoint as="offset" />
          </mxGeometry>
        </mxCell>
        <mxCell id="wX4-goPVKk1dY2rRN3xK-171" value="data insert" style="html=1;verticalAlign=bottom;endArrow=block;curved=0;rounded=0;" edge="1" parent="1">
          <mxGeometry x="-0.6396" width="80" relative="1" as="geometry">
            <mxPoint x="1376" y="868" as="sourcePoint" />
            <mxPoint x="1747" y="868" as="targetPoint" />
            <Array as="points">
              <mxPoint x="1546" y="868" />
            </Array>
            <mxPoint as="offset" />
          </mxGeometry>
        </mxCell>
        <mxCell id="wX4-goPVKk1dY2rRN3xK-172" value="callback" style="html=1;verticalAlign=bottom;endArrow=open;dashed=1;endSize=8;edgeStyle=elbowEdgeStyle;elbow=vertical;curved=0;rounded=0;" edge="1" parent="1" target="wX4-goPVKk1dY2rRN3xK-121">
          <mxGeometry x="0.6697" relative="1" as="geometry">
            <mxPoint x="1210" y="900" as="targetPoint" />
            <Array as="points">
              <mxPoint x="1550" y="900" />
            </Array>
            <mxPoint x="1745" y="900" as="sourcePoint" />
            <mxPoint as="offset" />
          </mxGeometry>
        </mxCell>
        <mxCell id="wX4-goPVKk1dY2rRN3xK-180" value="callback" style="html=1;verticalAlign=bottom;endArrow=open;dashed=1;endSize=8;edgeStyle=elbowEdgeStyle;elbow=vertical;curved=0;rounded=0;" edge="1" parent="1">
          <mxGeometry x="0.027" relative="1" as="geometry">
            <mxPoint x="895" y="204" as="targetPoint" />
            <Array as="points">
              <mxPoint x="945" y="204" />
            </Array>
            <mxPoint x="1075" y="204" as="sourcePoint" />
            <mxPoint as="offset" />
          </mxGeometry>
        </mxCell>
        <mxCell id="wX4-goPVKk1dY2rRN3xK-183" value="update data" style="html=1;verticalAlign=bottom;endArrow=block;curved=0;rounded=0;" edge="1" parent="1" source="wX4-goPVKk1dY2rRN3xK-196" target="wX4-goPVKk1dY2rRN3xK-65">
          <mxGeometry x="0.0667" width="80" relative="1" as="geometry">
            <mxPoint x="905" y="330" as="sourcePoint" />
            <mxPoint x="980" y="330" as="targetPoint" />
            <mxPoint as="offset" />
          </mxGeometry>
        </mxCell>
        <mxCell id="wX4-goPVKk1dY2rRN3xK-184" value="call back" style="html=1;verticalAlign=bottom;endArrow=open;dashed=1;endSize=8;edgeStyle=elbowEdgeStyle;elbow=vertical;curved=0;rounded=0;" edge="1" parent="1">
          <mxGeometry x="0.4865" relative="1" as="geometry">
            <mxPoint x="705" y="359" as="targetPoint" />
            <Array as="points">
              <mxPoint x="940" y="359" />
              <mxPoint x="1025" y="379" />
              <mxPoint x="995" y="439" />
            </Array>
            <mxPoint x="1075" y="359" as="sourcePoint" />
            <mxPoint as="offset" />
          </mxGeometry>
        </mxCell>
        <mxCell id="wX4-goPVKk1dY2rRN3xK-191" value="" style="html=1;points=[];perimeter=orthogonalPerimeter;outlineConnect=0;targetShapes=umlLifeline;portConstraint=eastwest;newEdgeStyle={&quot;edgeStyle&quot;:&quot;elbowEdgeStyle&quot;,&quot;elbow&quot;:&quot;vertical&quot;,&quot;curved&quot;:0,&quot;rounded&quot;:0};" vertex="1" parent="1">
          <mxGeometry x="325" y="785" width="10" height="39" as="geometry" />
        </mxCell>
        <mxCell id="wX4-goPVKk1dY2rRN3xK-178" value="User" style="shape=umlLifeline;perimeter=lifelinePerimeter;whiteSpace=wrap;html=1;container=0;dropTarget=0;collapsible=0;recursiveResize=0;outlineConnect=0;portConstraint=eastwest;newEdgeStyle={&quot;edgeStyle&quot;:&quot;elbowEdgeStyle&quot;,&quot;elbow&quot;:&quot;vertical&quot;,&quot;curved&quot;:0,&quot;rounded&quot;:0};" vertex="1" parent="1">
          <mxGeometry x="840" y="90" width="100" height="300" as="geometry" />
        </mxCell>
        <mxCell id="wX4-goPVKk1dY2rRN3xK-179" value="" style="html=1;points=[];perimeter=orthogonalPerimeter;outlineConnect=0;targetShapes=umlLifeline;portConstraint=eastwest;newEdgeStyle={&quot;edgeStyle&quot;:&quot;elbowEdgeStyle&quot;,&quot;elbow&quot;:&quot;vertical&quot;,&quot;curved&quot;:0,&quot;rounded&quot;:0};" vertex="1" parent="wX4-goPVKk1dY2rRN3xK-178">
          <mxGeometry x="45" y="104" width="10" height="94" as="geometry" />
        </mxCell>
        <mxCell id="wX4-goPVKk1dY2rRN3xK-196" value="" style="html=1;points=[];perimeter=orthogonalPerimeter;outlineConnect=0;targetShapes=umlLifeline;portConstraint=eastwest;newEdgeStyle={&quot;edgeStyle&quot;:&quot;elbowEdgeStyle&quot;,&quot;elbow&quot;:&quot;vertical&quot;,&quot;curved&quot;:0,&quot;rounded&quot;:0};" vertex="1" parent="wX4-goPVKk1dY2rRN3xK-178">
          <mxGeometry x="45" y="211" width="10" height="39" as="geometry" />
        </mxCell>
        <mxCell id="wX4-goPVKk1dY2rRN3xK-197" value="" style="html=1;points=[[0,0,0,0,5],[0,1,0,0,-5],[1,0,0,0,5],[1,1,0,0,-5]];perimeter=orthogonalPerimeter;outlineConnect=0;targetShapes=umlLifeline;portConstraint=eastwest;newEdgeStyle={&quot;curved&quot;:0,&quot;rounded&quot;:0};" vertex="1" parent="wX4-goPVKk1dY2rRN3xK-178">
          <mxGeometry x="45" y="146" width="10" height="40" as="geometry" />
        </mxCell>
        <mxCell id="wX4-goPVKk1dY2rRN3xK-198" value="authorization" style="html=1;align=left;spacingLeft=2;endArrow=block;rounded=0;edgeStyle=orthogonalEdgeStyle;curved=0;rounded=0;" edge="1" target="wX4-goPVKk1dY2rRN3xK-197" parent="wX4-goPVKk1dY2rRN3xK-178">
          <mxGeometry relative="1" as="geometry">
            <mxPoint x="50" y="126" as="sourcePoint" />
            <Array as="points">
              <mxPoint x="80" y="126" />
              <mxPoint x="80" y="156" />
            </Array>
          </mxGeometry>
        </mxCell>
        <mxCell id="wX4-goPVKk1dY2rRN3xK-185" value="Open API" style="shape=umlLifeline;perimeter=lifelinePerimeter;whiteSpace=wrap;html=1;container=0;dropTarget=0;collapsible=0;recursiveResize=0;outlineConnect=0;portConstraint=eastwest;newEdgeStyle={&quot;edgeStyle&quot;:&quot;elbowEdgeStyle&quot;,&quot;elbow&quot;:&quot;vertical&quot;,&quot;curved&quot;:0,&quot;rounded&quot;:0};" vertex="1" parent="1">
          <mxGeometry x="1520" y="436" width="100" height="501" as="geometry" />
        </mxCell>
        <mxCell id="wX4-goPVKk1dY2rRN3xK-186" value="" style="html=1;points=[];perimeter=orthogonalPerimeter;outlineConnect=0;targetShapes=umlLifeline;portConstraint=eastwest;newEdgeStyle={&quot;edgeStyle&quot;:&quot;elbowEdgeStyle&quot;,&quot;elbow&quot;:&quot;vertical&quot;,&quot;curved&quot;:0,&quot;rounded&quot;:0};" vertex="1" parent="wX4-goPVKk1dY2rRN3xK-185">
          <mxGeometry x="45" y="255" width="10" height="68" as="geometry" />
        </mxCell>
        <mxCell id="wX4-goPVKk1dY2rRN3xK-200" value="share" style="shape=umlLifeline;perimeter=lifelinePerimeter;whiteSpace=wrap;html=1;container=0;dropTarget=0;collapsible=0;recursiveResize=0;outlineConnect=0;portConstraint=eastwest;newEdgeStyle={&quot;edgeStyle&quot;:&quot;elbowEdgeStyle&quot;,&quot;elbow&quot;:&quot;vertical&quot;,&quot;curved&quot;:0,&quot;rounded&quot;:0};" vertex="1" parent="1">
          <mxGeometry x="805" y="440" width="100" height="844" as="geometry" />
        </mxCell>
        <mxCell id="wX4-goPVKk1dY2rRN3xK-201" value="" style="html=1;points=[];perimeter=orthogonalPerimeter;outlineConnect=0;targetShapes=umlLifeline;portConstraint=eastwest;newEdgeStyle={&quot;edgeStyle&quot;:&quot;elbowEdgeStyle&quot;,&quot;elbow&quot;:&quot;vertical&quot;,&quot;curved&quot;:0,&quot;rounded&quot;:0};" vertex="1" parent="wX4-goPVKk1dY2rRN3xK-200">
          <mxGeometry x="45" y="743" width="10" height="60" as="geometry" />
        </mxCell>
        <mxCell id="wX4-goPVKk1dY2rRN3xK-211" value="callback" style="html=1;verticalAlign=bottom;endArrow=open;dashed=1;endSize=8;edgeStyle=elbowEdgeStyle;elbow=vertical;curved=0;rounded=0;" edge="1" parent="1" source="wX4-goPVKk1dY2rRN3xK-28" target="wX4-goPVKk1dY2rRN3xK-25">
          <mxGeometry x="0.6698" relative="1" as="geometry">
            <mxPoint x="440" y="1254" as="targetPoint" />
            <Array as="points">
              <mxPoint x="756.8599999999999" y="1254" />
            </Array>
            <mxPoint x="870" y="1253.9999999999998" as="sourcePoint" />
            <mxPoint as="offset" />
          </mxGeometry>
        </mxCell>
        <mxCell id="wX4-goPVKk1dY2rRN3xK-203" value="call&amp;nbsp; info" style="html=1;verticalAlign=bottom;endArrow=block;edgeStyle=elbowEdgeStyle;elbow=horizontal;curved=0;rounded=0;" edge="1" parent="1" target="wX4-goPVKk1dY2rRN3xK-200">
          <mxGeometry x="-0.3795" relative="1" as="geometry">
            <mxPoint x="658" y="1199" as="sourcePoint" />
            <Array as="points">
              <mxPoint x="338" y="1199" />
              <mxPoint x="430" y="1189" />
            </Array>
            <mxPoint x="704.5" y="1199" as="targetPoint" />
            <mxPoint as="offset" />
          </mxGeometry>
        </mxCell>
        <mxCell id="wX4-goPVKk1dY2rRN3xK-214" value="callback" style="html=1;verticalAlign=bottom;endArrow=open;dashed=1;endSize=8;edgeStyle=elbowEdgeStyle;elbow=vertical;curved=0;rounded=0;" edge="1" parent="1" source="wX4-goPVKk1dY2rRN3xK-79">
          <mxGeometry x="-0.1138" relative="1" as="geometry">
            <mxPoint x="333" y="1004" as="targetPoint" />
            <Array as="points">
              <mxPoint x="534" y="1004" />
            </Array>
            <mxPoint x="508" y="1004" as="sourcePoint" />
            <mxPoint as="offset" />
          </mxGeometry>
        </mxCell>
        <mxCell id="wX4-goPVKk1dY2rRN3xK-217" value="data insert" style="html=1;verticalAlign=bottom;endArrow=block;edgeStyle=elbowEdgeStyle;elbow=horizontal;curved=0;rounded=0;" edge="1" parent="1">
          <mxGeometry x="-0.4026" y="1" relative="1" as="geometry">
            <mxPoint x="707" y="1082" as="sourcePoint" />
            <Array as="points">
              <mxPoint x="876" y="1085" />
              <mxPoint x="866" y="1070.05" />
            </Array>
            <mxPoint x="975" y="1082" as="targetPoint" />
            <mxPoint as="offset" />
          </mxGeometry>
        </mxCell>
      </root>
    </mxGraphModel>
  </diagram>
</mxfile>
